<mxfile host="app.diagrams.net" modified="2023-10-22T09:59:24.092Z" agent="Mozilla/5.0 (Windows NT 10.0; Win64; x64) AppleWebKit/537.36 (KHTML, like Gecko) Chrome/118.0.0.0 Safari/537.36" version="21.2.1" etag="Yxvm1sPZXdIZ5xdaAuWQ" type="github">
  <diagram name="Page-1" id="sDpJYRZMVJe8iVt8O8qO">
    <mxGraphModel>
      <root>
        <mxCell id="0" />
        <mxCell id="1" parent="0" />
      </root>
    </mxGraphModel>
  </diagram>
</mxfile>
